<svg id="Capa_1" data-name="Capa 1" xmlns="http://www.w3.org/2000/svg" viewBox="0 0 146.4 38.6"><defs><style>.cls-1{fill:#fff;}</style></defs><title>logo-habitat</title><path class="cls-1" d="M19.2,17.6c1.1,1.7,1.6,4.1,1.6,7.2v11a2.64,2.64,0,0,1-.7,1.9,2.5,2.5,0,0,1-1.8.8,2.36,2.36,0,0,1-1.9-.8,2.49,2.49,0,0,1-.7-1.9v-11a6.53,6.53,0,0,0-.9-3.7,3.7,3.7,0,0,0-3.3-1.4,5.22,5.22,0,0,0-3.8,1.4,5.24,5.24,0,0,0-1.4,3.6v11a2.64,2.64,0,0,1-.7,1.9,2.5,2.5,0,0,1-1.8.8,2.36,2.36,0,0,1-1.9-.8,2.49,2.49,0,0,1-.7-1.9V9.3a2.64,2.64,0,0,1,.7-1.9,2.56,2.56,0,0,1,1.9-.8,2.34,2.34,0,0,1,1.8.8,2.49,2.49,0,0,1,.7,1.9v9.5a12,12,0,0,1,2.9-2.6,7.74,7.74,0,0,1,4-1.1c3-.1,4.9.8,6,2.5" transform="translate(-1.2 -0.6)"/><path class="cls-1" d="M41,32.1A7.57,7.57,0,0,0,42.8,27,7.65,7.65,0,0,0,41,21.8a5.74,5.74,0,0,0-4.6-2.1,5.68,5.68,0,0,0-4.5,2.1A7.65,7.65,0,0,0,30.1,27a7.65,7.65,0,0,0,1.7,5.1,5.59,5.59,0,0,0,4.5,2,5.45,5.45,0,0,0,4.7-2m6-16.3a2.49,2.49,0,0,1,.7,1.9V35.9a2.64,2.64,0,0,1-.7,1.9,2.56,2.56,0,0,1-1.9.8,2.27,2.27,0,0,1-1.8-.7,3,3,0,0,1-.8-1.9,9.44,9.44,0,0,1-2.9,2.1,8.6,8.6,0,0,1-3.9.9,10,10,0,0,1-5.4-1.5,10.32,10.32,0,0,1-3.8-4.2,13.8,13.8,0,0,1-1.4-6.2,13.8,13.8,0,0,1,1.4-6.2,11.29,11.29,0,0,1,3.8-4.3,9.88,9.88,0,0,1,5.3-1.5,10.06,10.06,0,0,1,3.9.8,10.75,10.75,0,0,1,3.1,1.9h0a2.64,2.64,0,0,1,.7-1.9,2.5,2.5,0,0,1,1.8-.8,2.28,2.28,0,0,1,1.9.7" transform="translate(-1.2 -0.6)"/><path class="cls-1" d="M69.1,32.1a7.65,7.65,0,0,0,1.8-5.2,7.65,7.65,0,0,0-1.7-5.1,5.59,5.59,0,0,0-4.5-2,6,6,0,0,0-4.6,2,7.57,7.57,0,0,0-1.8,5.1,7.65,7.65,0,0,0,1.8,5.2,5.74,5.74,0,0,0,4.6,2.1,5.63,5.63,0,0,0,4.4-2.1m1.5-15.5a10.32,10.32,0,0,1,3.8,4.2A13.8,13.8,0,0,1,75.8,27a13.8,13.8,0,0,1-1.4,6.2,11.29,11.29,0,0,1-3.8,4.3A9.88,9.88,0,0,1,65.3,39a10.06,10.06,0,0,1-3.9-.8,11.21,11.21,0,0,1-3-2v.3a2.64,2.64,0,0,1-.7,1.9,2.56,2.56,0,0,1-1.9.8,2.27,2.27,0,0,1-1.8-.7,2.49,2.49,0,0,1-.7-1.9V9.6A2.64,2.64,0,0,1,54,7.7a2.5,2.5,0,0,1,1.8-.8,2.73,2.73,0,0,1,1.9.8,2.49,2.49,0,0,1,.7,1.9v9a9.28,9.28,0,0,1,6.8-3.3,7.34,7.34,0,0,1,5.4,1.3" transform="translate(-1.2 -0.6)"/><path class="cls-1" d="M84.2,37.7a2.5,2.5,0,0,1-1.8.8,2.36,2.36,0,0,1-1.9-.8,2.49,2.49,0,0,1-.7-1.9V18.1a2.64,2.64,0,0,1,.7-1.9,2.56,2.56,0,0,1,1.9-.8,2.34,2.34,0,0,1,1.8.8,2.49,2.49,0,0,1,.7,1.9V35.9a2.09,2.09,0,0,1-.7,1.8" transform="translate(-1.2 -0.6)"/><path class="cls-1" d="M102.4,34.2a2.46,2.46,0,0,1,.5,1.5,2.34,2.34,0,0,1-1.3,2,5.47,5.47,0,0,1-2.9.8,8.81,8.81,0,0,1-4.5-1.1q-1.8-1.2-1.8-4.8v-12h-2a2.06,2.06,0,0,1-1.7-.7,2.19,2.19,0,0,1-.7-1.7,2.19,2.19,0,0,1,.7-1.7,2.61,2.61,0,0,1,1.7-.7h2V13a2.73,2.73,0,0,1,.8-1.9,2.56,2.56,0,0,1,1.9-.8A2.57,2.57,0,0,1,97.6,13v2.8h3.1a2.06,2.06,0,0,1,1.7.7,2.19,2.19,0,0,1,.7,1.7,2.19,2.19,0,0,1-.7,1.7,2.61,2.61,0,0,1-1.7.7H97.6V32.3a1.73,1.73,0,0,0,.5,1.3,1.7,1.7,0,0,0,1.3.4,5.07,5.07,0,0,0,.9-.2,3.55,3.55,0,0,1,1-.2,1.25,1.25,0,0,1,1.1.6" transform="translate(-1.2 -0.6)"/><path class="cls-1" d="M122.4,32.1a7.57,7.57,0,0,0,1.8-5.1,7.65,7.65,0,0,0-1.8-5.2,5.74,5.74,0,0,0-4.6-2.1,5.68,5.68,0,0,0-4.5,2.1,7.65,7.65,0,0,0-1.8,5.2,7.65,7.65,0,0,0,1.7,5.1,5.59,5.59,0,0,0,4.5,2,5.45,5.45,0,0,0,4.7-2m5.9-16.3a2.49,2.49,0,0,1,.7,1.9V35.9a2.64,2.64,0,0,1-.7,1.9,2.56,2.56,0,0,1-1.9.8,2.27,2.27,0,0,1-1.8-.7,3,3,0,0,1-.8-1.9,9.44,9.44,0,0,1-2.9,2.1,8.6,8.6,0,0,1-3.9.9,10,10,0,0,1-5.4-1.5,10.32,10.32,0,0,1-3.8-4.2,13.8,13.8,0,0,1-1.4-6.2,13.8,13.8,0,0,1,1.4-6.2,11.29,11.29,0,0,1,3.8-4.3,9.88,9.88,0,0,1,5.3-1.5,10.06,10.06,0,0,1,3.9.8,10.75,10.75,0,0,1,3.1,1.9h0a2.64,2.64,0,0,1,.7-1.9,2.56,2.56,0,0,1,1.9-.8,2.09,2.09,0,0,1,1.8.7" transform="translate(-1.2 -0.6)"/><path class="cls-1" d="M146.9,34.2a2.46,2.46,0,0,1,.5,1.5,2.34,2.34,0,0,1-1.3,2,5.47,5.47,0,0,1-2.9.8,8.81,8.81,0,0,1-4.5-1.1q-1.8-1.2-1.8-4.8v-12h-2a2.06,2.06,0,0,1-1.7-.7,2.19,2.19,0,0,1-.7-1.7,2.19,2.19,0,0,1,.7-1.7,2.61,2.61,0,0,1,1.7-.7h2V13a2.73,2.73,0,0,1,.8-1.9,2.56,2.56,0,0,1,1.9-.8,2.57,2.57,0,0,1,2.5,2.7v2.8h3.1a2.06,2.06,0,0,1,1.7.7,2.19,2.19,0,0,1,.7,1.7,2.19,2.19,0,0,1-.7,1.7,2.61,2.61,0,0,1-1.7.7h-3.1V32.3a1.73,1.73,0,0,0,.5,1.3,1.7,1.7,0,0,0,1.3.4,5.07,5.07,0,0,0,.9-.2,3.55,3.55,0,0,1,1-.2,1.54,1.54,0,0,1,1.1.6" transform="translate(-1.2 -0.6)"/><path class="cls-1" d="M35.6,12.5S35.2,1,47.5.6c0,0-.5,11.7-11.9,11.9" transform="translate(-1.2 -0.6)"/><path class="cls-1" d="M85.2,11.4a2.7,2.7,0,1,1-2.7-2.7,2.69,2.69,0,0,1,2.7,2.7" transform="translate(-1.2 -0.6)"/></svg>