<svg id="Capa_1" data-name="Capa 1" xmlns="http://www.w3.org/2000/svg" viewBox="0 0 531.64 532"><defs><style>.cls-1{fill:#fff;}</style></defs><title>setting-icon</title><path class="cls-1" d="M169.44,372.48a11.17,11.17,0,1,1-8.57,20.64c-5.08-2.12-9.91-4.43-14.49-6.85l-6.59-3.74-35.86,31.3a11.18,11.18,0,0,1-15.26-.53l-42.8-42.8A11.17,11.17,0,0,1,45.64,355l31-35.55a175.45,175.45,0,0,1-10.93-22,172.83,172.83,0,0,1-7.8-23.21L10.46,271A11.19,11.19,0,0,1,0,259.87l0-60.54a11.21,11.21,0,0,1,11.13-11.2l46.8-3.19a176.31,176.31,0,0,1,18.73-45.17L45.37,103.91a11.18,11.18,0,0,1,.53-15.26L88.69,45.86a11.16,11.16,0,0,1,15.52-.23l35.57,31a176.28,176.28,0,0,1,45.16-18.73l3.24-47.47A11.19,11.19,0,0,1,199.33,0l60.54,0a11.21,11.21,0,0,1,11.2,11.13l3.18,46.8a176.28,176.28,0,0,1,45.16,18.73l35.87-31.29a11.15,11.15,0,0,1,15.21.49l42.82,42.78a11.18,11.18,0,0,1,.26,15.56l-31,35.57,4.12,7.45c2.41,4.58,4.63,9.29,6.64,14.08a11.18,11.18,0,0,1-20.65,8.57c-1.74-4.18-3.68-8.27-5.75-12.22l-.32-.57c-2.26-4.24-4.69-8.36-7.26-12.29a11.22,11.22,0,0,1,1-13.47l29.87-34.24L362.1,69,328.5,98.35a11.2,11.2,0,0,1-14.1,1.52,155.75,155.75,0,0,0-25.53-13.52A154.08,154.08,0,0,0,261.79,78a11.2,11.2,0,0,1-9.29-10.28l-3.07-45.26H209.78L206.7,67.67a11.18,11.18,0,0,1-8.88,10.19,153.59,153.59,0,0,0-27.48,8.49A155.85,155.85,0,0,0,144.8,99.87a11.24,11.24,0,0,1-13.47-1L97.1,69,69,97.08l29.32,33.61a11.2,11.2,0,0,1,1.51,14.1A155.51,155.51,0,0,0,86.36,170.3,153.53,153.53,0,0,0,78,197.4a11.19,11.19,0,0,1-10.28,9.29l-45.26,3.08v39.64l45.26,3.08a11.22,11.22,0,0,1,10.2,8.89,153.81,153.81,0,0,0,22,53,11.24,11.24,0,0,1-1,13.47L69,362.09,97.1,390.15l33.6-29.31a11.2,11.2,0,0,1,14.1-1.51c3.85,2.52,7.62,4.78,11.27,6.76l.81.39c4.21,2.24,8.41,4.25,12.56,6Zm14-88.79a11.17,11.17,0,1,1-14.53,17,93.44,93.44,0,0,1-5.4-137.18l.64-.59a93.41,93.41,0,0,1,136.74,6.2,11.18,11.18,0,1,1-17.06,14.45,71.22,71.22,0,0,0-104-4.75l-.48.52a71,71,0,0,0,4.09,104.37ZM338,189.12h44.43a11.21,11.21,0,0,1,11.2,11.13l2.17,32a130.21,130.21,0,0,1,15.34,5.28,131.94,131.94,0,0,1,14.63,7.14l24.69-21.56a11.17,11.17,0,0,1,15.22.49L497.08,255a11.16,11.16,0,0,1,.26,15.56L476.05,295a131.94,131.94,0,0,1,7.14,14.63l.22.57A133.3,133.3,0,0,1,488.47,325l32.71,2.22a11.19,11.19,0,0,1,10.44,11.15l0,44.42A11.21,11.21,0,0,1,520.51,394l-32,2.18a131.49,131.49,0,0,1-5.28,15.3,127.55,127.55,0,0,1-7.14,14.67l21.53,24.69A11.17,11.17,0,0,1,497.1,466l-31.39,31.41a11.17,11.17,0,0,1-15.57.27l-24.39-21.28a134.54,134.54,0,0,1-30,12.41l-2.22,32.71A11.2,11.2,0,0,1,382.4,532L338,532a11.21,11.21,0,0,1-11.2-11.13l-2.18-32a132.92,132.92,0,0,1-30-12.42L269.93,498a11.17,11.17,0,0,1-15.24-.51l-31.44-31.38a11.21,11.21,0,0,1,0-15.84l21.07-24.12a132.92,132.92,0,0,1-7.15-14.63,131.37,131.37,0,0,1-5.27-15.34l-32.7-2.23a11.2,11.2,0,0,1-10.45-11.16l0-44.42a11.21,11.21,0,0,1,11.14-11.2l32-2.17a133.47,133.47,0,0,1,5.17-15A130.92,130.92,0,0,1,244.34,295l-21.57-24.71a11.17,11.17,0,0,1,.52-15.26l31.41-31.4a11.19,11.19,0,0,1,15.53-.23l24.39,21.31a133.14,133.14,0,0,1,30-12.43l2.23-32.71A11.21,11.21,0,0,1,338,189.11Zm11.25,22.39h-.81l-2.07,30.43a11.2,11.2,0,0,1-8.88,10.2,109.6,109.6,0,0,0-37.88,15.74,11.23,11.23,0,0,1-13.52-1l-23-20.05-16.67,16.64L266.1,286a11.18,11.18,0,0,1,1.34,14l-.32.49a108.78,108.78,0,0,0-9.4,17.92,110,110,0,0,0-5.88,19,11.19,11.19,0,0,1-10.29,9.27l-30.41,2.07v23.52l30.41,2.07a11.21,11.21,0,0,1,10.2,8.89,109.68,109.68,0,0,0,15.74,37.88,11.24,11.24,0,0,1-1,13.47l-20.07,23,16.67,16.67,22.35-19.51a11.21,11.21,0,0,1,14.1-1.52,110.23,110.23,0,0,0,37.5,15.65,11.17,11.17,0,0,1,9.27,10.28l2.07,30.42H372L374,479.19A11.2,11.2,0,0,1,382.9,469a109.71,109.71,0,0,0,19.65-6.08,111.49,111.49,0,0,0,18.23-9.65,11.25,11.25,0,0,1,13.48,1l23,20.07,16.66-16.66-19.53-22.38a11.19,11.19,0,0,1-1.52-14.1,109.21,109.21,0,0,0,15.65-37.48,11.18,11.18,0,0,1,10.28-9.28l30.43-2.07V348.8l-30.43-2.06a11.21,11.21,0,0,1-10.2-8.89,110.78,110.78,0,0,0-5.84-19.16l-.22-.49A110.92,110.92,0,0,0,452.87,300a11.24,11.24,0,0,1,1-13.47l20.08-23-16.66-16.65-22.39,19.54a11.18,11.18,0,0,1-14.1,1.52,110.88,110.88,0,0,0-18.23-9.67,109,109,0,0,0-19.24-6A11.2,11.2,0,0,1,374,242l-2.07-30.42H349.22Zm11,77.44a71.61,71.61,0,1,1-50.64,122.23l-.59-.64A71.6,71.6,0,0,1,360.19,289ZM395,325.77a49.22,49.22,0,0,0-70.11,69.09l.52.49A49.2,49.2,0,0,0,395,325.77Z"/></svg>